<svg width="156" height="38" viewBox="0 0 156 38" fill="none" xmlns="http://www.w3.org/2000/svg">
<path d="M3.64 30.36C2.89333 30.36 2.28 30.1867 1.8 29.84C1.34667 29.4933 1.05333 29.0267 0.92 28.44C0.813333 27.8533 0.933333 27.2 1.28 26.48L11.52 4.04C11.9467 3.13333 12.4533 2.48 13.04 2.08C13.6267 1.65333 14.3067 1.44 15.08 1.44C15.8533 1.44 16.5333 1.65333 17.12 2.08C17.7067 2.48 18.2 3.13333 18.6 4.04L28.92 26.48C29.2667 27.2 29.3867 27.8667 29.28 28.48C29.2 29.0667 28.9333 29.5333 28.48 29.88C28.0267 30.2 27.44 30.36 26.72 30.36C25.8133 30.36 25.1067 30.1467 24.6 29.72C24.12 29.2933 23.6933 28.6267 23.32 27.72L20.92 22.16L23.4 23.88H6.72L9.2 22.16L6.84 27.72C6.44 28.6533 6.01333 29.3333 5.56 29.76C5.13333 30.16 4.49333 30.36 3.64 30.36ZM15 8.4L9.88 20.6L8.8 19.04H21.32L20.24 20.6L15.08 8.4H15ZM34.2772 37.56C33.2905 37.56 32.5305 37.2933 31.9972 36.76C31.4905 36.2533 31.2372 35.4933 31.2372 34.48V13.08C31.2372 12.0933 31.4905 11.3467 31.9972 10.84C32.5305 10.3067 33.2639 10.04 34.1972 10.04C35.1839 10.04 35.9305 10.3067 36.4372 10.84C36.9439 11.3467 37.1972 12.0933 37.1972 13.08V15.8L36.7572 14.24C37.1572 12.96 37.9572 11.9333 39.1572 11.16C40.3839 10.36 41.7839 9.96 43.3572 9.96C45.0639 9.96 46.5572 10.3733 47.8372 11.2C49.1439 12.0267 50.1572 13.2 50.8772 14.72C51.5972 16.24 51.9572 18.0533 51.9572 20.16C51.9572 22.2667 51.5972 24.0933 50.8772 25.64C50.1572 27.1867 49.1572 28.3733 47.8772 29.2C46.5972 30.0267 45.0905 30.44 43.3572 30.44C41.8105 30.44 40.4372 30.0667 39.2372 29.32C38.0372 28.5467 37.2239 27.5467 36.7972 26.32H37.2772V34.48C37.2772 35.4933 37.0105 36.2533 36.4772 36.76C35.9705 37.2933 35.2372 37.56 34.2772 37.56ZM41.5572 25.92C42.4105 25.92 43.1572 25.7067 43.7972 25.28C44.4639 24.8533 44.9705 24.2267 45.3172 23.4C45.6905 22.5467 45.8772 21.4667 45.8772 20.16C45.8772 18.2133 45.4772 16.7867 44.6772 15.88C43.8772 14.9467 42.8372 14.48 41.5572 14.48C40.7039 14.48 39.9439 14.68 39.2772 15.08C38.6372 15.48 38.1305 16.1067 37.7572 16.96C37.3839 17.7867 37.1972 18.8533 37.1972 20.16C37.1972 22.1067 37.5972 23.56 38.3972 24.52C39.1972 25.4533 40.2505 25.92 41.5572 25.92ZM57.4912 37.56C56.5046 37.56 55.7446 37.2933 55.2112 36.76C54.7046 36.2533 54.4512 35.4933 54.4512 34.48V13.08C54.4512 12.0933 54.7046 11.3467 55.2112 10.84C55.7446 10.3067 56.4779 10.04 57.4112 10.04C58.3979 10.04 59.1446 10.3067 59.6512 10.84C60.1579 11.3467 60.4112 12.0933 60.4112 13.08V15.8L59.9712 14.24C60.3712 12.96 61.1712 11.9333 62.3712 11.16C63.5979 10.36 64.9979 9.96 66.5712 9.96C68.2779 9.96 69.7712 10.3733 71.0512 11.2C72.3579 12.0267 73.3712 13.2 74.0912 14.72C74.8112 16.24 75.1712 18.0533 75.1712 20.16C75.1712 22.2667 74.8112 24.0933 74.0912 25.64C73.3712 27.1867 72.3712 28.3733 71.0912 29.2C69.8112 30.0267 68.3046 30.44 66.5712 30.44C65.0246 30.44 63.6512 30.0667 62.4512 29.32C61.2512 28.5467 60.4379 27.5467 60.0112 26.32H60.4912V34.48C60.4912 35.4933 60.2246 36.2533 59.6912 36.76C59.1846 37.2933 58.4512 37.56 57.4912 37.56ZM64.7712 25.92C65.6246 25.92 66.3712 25.7067 67.0112 25.28C67.6779 24.8533 68.1846 24.2267 68.5312 23.4C68.9046 22.5467 69.0912 21.4667 69.0912 20.16C69.0912 18.2133 68.6912 16.7867 67.8912 15.88C67.0912 14.9467 66.0512 14.48 64.7712 14.48C63.9179 14.48 63.1579 14.68 62.4912 15.08C61.8512 15.48 61.3446 16.1067 60.9712 16.96C60.5979 17.7867 60.4112 18.8533 60.4112 20.16C60.4112 22.1067 60.8112 23.56 61.6112 24.52C62.4112 25.4533 63.4646 25.92 64.7712 25.92ZM84.7453 30.44C82.372 30.44 80.5986 29.7867 79.4253 28.48C78.252 27.1467 77.6653 25.1733 77.6653 22.56V4.52C77.6653 3.50667 77.9186 2.74667 78.4253 2.24C78.9586 1.70667 79.7186 1.44 80.7053 1.44C81.6653 1.44 82.3986 1.70667 82.9053 2.24C83.4386 2.74667 83.7053 3.50667 83.7053 4.52V22.32C83.7053 23.4133 83.932 24.2267 84.3853 24.76C84.8653 25.2667 85.492 25.52 86.2653 25.52C86.4786 25.52 86.6786 25.5067 86.8653 25.48C87.052 25.4533 87.252 25.44 87.4653 25.44C87.892 25.3867 88.1853 25.52 88.3453 25.84C88.532 26.1333 88.6253 26.7333 88.6253 27.64C88.6253 28.44 88.4653 29.0533 88.1453 29.48C87.8253 29.88 87.332 30.1467 86.6653 30.28C86.3986 30.3067 86.092 30.3333 85.7453 30.36C85.3986 30.4133 85.0653 30.44 84.7453 30.44ZM92.8256 30.32C91.839 30.32 91.079 30.04 90.5456 29.48C90.039 28.8933 89.7856 28.08 89.7856 27.04V13.36C89.7856 12.2933 90.039 11.48 90.5456 10.92C91.079 10.3333 91.839 10.04 92.8256 10.04C93.7856 10.04 94.519 10.3333 95.0256 10.92C95.559 11.48 95.8256 12.2933 95.8256 13.36V27.04C95.8256 28.08 95.5723 28.8933 95.0656 29.48C94.559 30.04 93.8123 30.32 92.8256 30.32ZM92.8256 6.76C91.7056 6.76 90.839 6.50667 90.2256 6C89.639 5.46667 89.3456 4.72 89.3456 3.76C89.3456 2.77333 89.639 2.02667 90.2256 1.52C90.839 0.986665 91.7056 0.719998 92.8256 0.719998C93.9456 0.719998 94.799 0.986665 95.3856 1.52C95.9723 2.02667 96.2656 2.77333 96.2656 3.76C96.2656 4.72 95.9723 5.46667 95.3856 6C94.799 6.50667 93.9456 6.76 92.8256 6.76ZM112.409 30.32C109.715 30.32 107.409 29.7467 105.489 28.6C103.569 27.4267 102.089 25.76 101.049 23.6C100.035 21.44 99.5288 18.8667 99.5288 15.88C99.5288 13.64 99.8088 11.64 100.369 9.88C100.955 8.09333 101.795 6.58666 102.889 5.36C104.009 4.10666 105.369 3.14667 106.969 2.48C108.595 1.81333 110.409 1.48 112.409 1.48C114.169 1.48 115.809 1.73333 117.329 2.24C118.849 2.74667 120.155 3.49333 121.249 4.48C121.515 4.72 121.689 4.97333 121.769 5.24C121.849 5.50667 121.849 5.76 121.769 6C121.715 6.21333 121.595 6.4 121.409 6.56C121.222 6.69333 120.995 6.76 120.729 6.76C120.489 6.73333 120.222 6.6 119.929 6.36C118.915 5.48 117.782 4.82667 116.529 4.4C115.302 3.97333 113.942 3.76 112.449 3.76C110.235 3.76 108.355 4.24 106.809 5.2C105.289 6.13333 104.129 7.50667 103.329 9.32C102.555 11.1333 102.169 13.32 102.169 15.88C102.169 18.4667 102.555 20.6667 103.329 22.48C104.129 24.2933 105.289 25.68 106.809 26.64C108.355 27.5733 110.235 28.04 112.449 28.04C113.915 28.04 115.275 27.8267 116.529 27.4C117.782 26.9467 118.929 26.28 119.969 25.4C120.262 25.16 120.529 25.04 120.769 25.04C121.035 25.04 121.249 25.12 121.409 25.28C121.595 25.4133 121.729 25.6 121.809 25.84C121.889 26.0533 121.889 26.28 121.809 26.52C121.755 26.76 121.609 26.9867 121.369 27.2C120.222 28.24 118.889 29.0267 117.369 29.56C115.875 30.0667 114.222 30.32 112.409 30.32ZM131.016 30.28C129.872 30.28 128.846 30.0583 127.936 29.615C127.049 29.1717 126.337 28.565 125.801 27.795C125.287 27.025 125.031 26.1617 125.031 25.205C125.031 23.945 125.346 22.9533 125.976 22.23C126.606 21.5067 127.667 21.005 129.161 20.725C130.654 20.4217 132.707 20.27 135.321 20.27H136.826V21.845H135.356C133.256 21.845 131.611 21.9383 130.421 22.125C129.254 22.2883 128.437 22.6033 127.971 23.07C127.504 23.5367 127.271 24.19 127.271 25.03C127.271 26.08 127.632 26.9317 128.356 27.585C129.079 28.2383 130.059 28.565 131.296 28.565C132.299 28.565 133.174 28.3317 133.921 27.865C134.691 27.375 135.297 26.71 135.741 25.87C136.184 25.03 136.406 24.0733 136.406 23V19.01C136.406 17.4467 136.091 16.315 135.461 15.615C134.831 14.8917 133.827 14.53 132.451 14.53C131.564 14.53 130.701 14.6467 129.861 14.88C129.044 15.1133 128.169 15.4867 127.236 16C126.979 16.14 126.746 16.1867 126.536 16.14C126.349 16.0933 126.197 16 126.081 15.86C125.987 15.72 125.917 15.5567 125.871 15.37C125.847 15.16 125.882 14.9617 125.976 14.775C126.069 14.5883 126.232 14.4367 126.466 14.32C127.446 13.7833 128.437 13.3867 129.441 13.13C130.467 12.85 131.459 12.71 132.416 12.71C133.792 12.71 134.924 12.9433 135.811 13.41C136.721 13.8767 137.386 14.5767 137.806 15.51C138.249 16.4433 138.471 17.645 138.471 19.115V29.125C138.471 29.475 138.389 29.7433 138.226 29.93C138.062 30.1167 137.817 30.21 137.491 30.21C137.164 30.21 136.907 30.1167 136.721 29.93C136.534 29.7433 136.441 29.475 136.441 29.125V25.905H136.791C136.581 26.815 136.207 27.5967 135.671 28.25C135.134 28.9033 134.469 29.405 133.676 29.755C132.882 30.105 131.996 30.28 131.016 30.28ZM142.337 30.21C141.987 30.21 141.718 30.1167 141.532 29.93C141.345 29.7433 141.252 29.475 141.252 29.125V13.9C141.252 13.5267 141.345 13.2467 141.532 13.06C141.718 12.8733 141.987 12.78 142.337 12.78C142.663 12.78 142.908 12.8733 143.072 13.06C143.258 13.2467 143.352 13.5267 143.352 13.9V17.19L142.967 16.98C143.433 15.58 144.227 14.5183 145.347 13.795C146.49 13.0717 147.797 12.71 149.267 12.71C150.62 12.71 151.74 12.955 152.627 13.445C153.537 13.9117 154.213 14.635 154.657 15.615C155.1 16.595 155.322 17.82 155.322 19.29V29.125C155.322 29.475 155.228 29.7433 155.042 29.93C154.855 30.1167 154.598 30.21 154.272 30.21C153.922 30.21 153.653 30.1167 153.467 29.93C153.28 29.7433 153.187 29.475 153.187 29.125V19.465C153.187 17.7617 152.848 16.525 152.172 15.755C151.495 14.9617 150.422 14.565 148.952 14.565C147.272 14.565 145.918 15.09 144.892 16.14C143.888 17.1667 143.387 18.555 143.387 20.305V29.125C143.387 29.8483 143.037 30.21 142.337 30.21Z" fill="#317dce"/>
</svg>
