<svg width="128" height="30" viewBox="0 0 128 30" fill="none" xmlns="http://www.w3.org/2000/svg">
<path d="M0.76 23L8.68 0.479999H12.92L20.96 23H18.24L15.8 15.96H5.92L3.48 23H0.76ZM10.88 1.6L6.64 13.8H15.08L10.88 1.6ZM31.0406 23.4C30.0006 23.4 29.1073 23.2267 28.3606 22.88C27.6406 22.5067 27.054 22.08 26.6006 21.6C26.1473 21.12 25.8006 20.6667 25.5606 20.24C25.3473 19.8133 25.214 19.5333 25.1606 19.4H25.0806V29.72H22.4406V6.72H24.6406L25.0806 10.8H25.1606C25.214 10.6667 25.3473 10.3867 25.5606 9.96C25.774 9.53333 26.094 9.06667 26.5206 8.56C26.974 8.05333 27.5606 7.62667 28.2806 7.28C29.0273 6.90667 29.9473 6.72 31.0406 6.72C32.614 6.72 33.9206 7.08 34.9606 7.8C36.0273 8.52 36.8273 9.52 37.3606 10.8C37.9206 12.0533 38.2006 13.4933 38.2006 15.12C38.2006 17.5467 37.5873 19.5333 36.3606 21.08C35.134 22.6267 33.3606 23.4 31.0406 23.4ZM30.5206 21.12C31.774 21.12 32.774 20.8267 33.5206 20.24C34.294 19.6533 34.8406 18.9067 35.1606 18C35.5073 17.0667 35.6806 16.0933 35.6806 15.08C35.6806 14.04 35.494 13.0667 35.1206 12.16C34.7473 11.2533 34.1606 10.52 33.3606 9.96C32.5873 9.37333 31.5606 9.08 30.2806 9.08C28.734 9.08 27.494 9.62667 26.5606 10.72C25.6273 11.7867 25.1606 13.24 25.1606 15.08C25.1606 16.9467 25.654 18.4267 26.6406 19.52C27.6273 20.5867 28.9206 21.12 30.5206 21.12ZM48.825 23.4C47.785 23.4 46.8917 23.2267 46.145 22.88C45.425 22.5067 44.8383 22.08 44.385 21.6C43.9317 21.12 43.585 20.6667 43.345 20.24C43.1317 19.8133 42.9983 19.5333 42.945 19.4H42.865V29.72H40.225V6.72H42.425L42.865 10.8H42.945C42.9983 10.6667 43.1317 10.3867 43.345 9.96C43.5583 9.53333 43.8783 9.06667 44.305 8.56C44.7583 8.05333 45.345 7.62667 46.065 7.28C46.8117 6.90667 47.7317 6.72 48.825 6.72C50.3983 6.72 51.705 7.08 52.745 7.8C53.8117 8.52 54.6117 9.52 55.145 10.8C55.705 12.0533 55.985 13.4933 55.985 15.12C55.985 17.5467 55.3717 19.5333 54.145 21.08C52.9183 22.6267 51.145 23.4 48.825 23.4ZM48.305 21.12C49.5583 21.12 50.5583 20.8267 51.305 20.24C52.0783 19.6533 52.625 18.9067 52.945 18C53.2917 17.0667 53.465 16.0933 53.465 15.08C53.465 14.04 53.2783 13.0667 52.905 12.16C52.5317 11.2533 51.945 10.52 51.145 9.96C50.3717 9.37333 49.345 9.08 48.065 9.08C46.5183 9.08 45.2783 9.62667 44.345 10.72C43.4117 11.7867 42.945 13.24 42.945 15.08C42.945 16.9467 43.4383 18.4267 44.425 19.52C45.4117 20.5867 46.705 21.12 48.305 21.12ZM58.0894 23V0.479999H60.6094V23H58.0894ZM65.0491 4.96C64.4624 4.96 64.0624 4.81333 63.8491 4.52C63.6624 4.2 63.5691 3.8 63.5691 3.32C63.5691 2.92 63.6624 2.57333 63.8491 2.28C64.0624 1.96 64.4624 1.8 65.0491 1.8C65.6357 1.8 66.0224 1.96 66.2091 2.28C66.4224 2.57333 66.5291 2.92 66.5291 3.32C66.5291 3.8 66.4224 4.2 66.2091 4.52C66.0224 4.81333 65.6357 4.96 65.0491 4.96ZM63.7691 23V6.72H66.3291V23H63.7691ZM79.3994 23.4C77.2927 23.4 75.386 22.9733 73.6794 22.12C71.9727 21.24 70.6127 19.9467 69.5994 18.24C68.6127 16.5333 68.1194 14.4 68.1194 11.84C68.146 9.33333 68.6527 7.2 69.6394 5.44C70.626 3.68 71.9727 2.34667 73.6794 1.44C75.386 0.533333 77.3327 0.0799994 79.5194 0.0799994C81.5994 0.0799994 83.3727 0.453333 84.8394 1.2C86.306 1.94667 87.4794 2.96 88.3594 4.24C89.266 5.52 89.8527 6.96 90.1194 8.56H85.9194C85.7327 7.38667 85.2927 6.46667 84.5994 5.8C83.9327 5.10667 83.146 4.62667 82.2394 4.36C81.3327 4.06667 80.426 3.92 79.5194 3.92C77.146 3.92 75.3194 4.58667 74.0394 5.92C72.786 7.25333 72.1594 9.13333 72.1594 11.56C72.1594 14.1467 72.7727 16.1333 73.9994 17.52C75.2527 18.9067 77.066 19.6 79.4394 19.6C80.426 19.6 81.386 19.4533 82.3194 19.16C83.2527 18.84 84.0527 18.3333 84.7194 17.64C85.386 16.92 85.8127 15.96 85.9994 14.76H90.2394C89.946 16.4133 89.346 17.8933 88.4394 19.2C87.5594 20.48 86.3594 21.5067 84.8394 22.28C83.346 23.0267 81.5327 23.4 79.3994 23.4ZM100.212 23.35C98.7652 23.35 97.4235 23.0117 96.1869 22.335C94.9735 21.635 93.9935 20.655 93.2469 19.395C92.5235 18.1117 92.1619 16.6183 92.1619 14.915C92.1619 13.235 92.4769 11.765 93.1069 10.505C93.7602 9.245 94.6819 8.265 95.8719 7.565C97.0619 6.865 98.4619 6.515 100.072 6.515C101.005 6.515 101.88 6.67833 102.697 7.005C103.514 7.33167 104.202 7.74 104.762 8.23C105.322 8.69667 105.695 9.16333 105.882 9.63L105.952 6.935H109.557V23H105.987L105.917 20.165C105.52 21.005 104.797 21.7517 103.747 22.405C102.697 23.035 101.519 23.35 100.212 23.35ZM100.842 20.2C102.172 20.2 103.292 19.745 104.202 18.835C105.112 17.9017 105.567 16.6883 105.567 15.195V14.95C105.567 13.9467 105.357 13.0483 104.937 12.255C104.517 11.4617 103.945 10.8433 103.222 10.4C102.499 9.95667 101.705 9.735 100.842 9.735C99.3485 9.735 98.1935 10.225 97.3769 11.205C96.5602 12.1617 96.1519 13.41 96.1519 14.95C96.1519 16.5133 96.5485 17.785 97.3419 18.765C98.1585 19.7217 99.3252 20.2 100.842 20.2ZM111.84 6.935H115.55L115.585 9.875C116.028 8.895 116.728 8.09 117.685 7.46C118.642 6.83 119.762 6.515 121.045 6.515C122.702 6.515 123.973 6.865 124.86 7.565C125.747 8.24167 126.342 9.19833 126.645 10.435C126.948 11.6717 127.1 13.2817 127.1 15.265V23H123.32V15.37C123.32 13.34 123.122 11.8817 122.725 10.995C122.328 10.085 121.512 9.63 120.275 9.63C119.575 9.63 118.863 9.85167 118.14 10.295C117.417 10.715 116.81 11.3333 116.32 12.15C115.853 12.9667 115.62 13.9233 115.62 15.02V23H111.84V6.935Z" fill="#317DCE"/>
</svg>
