<svg width="185" height="56" viewBox="0 0 185 56" fill="none" xmlns="http://www.w3.org/2000/svg">
<g clip-path="url(#clip0_204_34)">
<rect width="184.519" height="55" transform="translate(0.48053 0.902706)"/>
<path d="M4.12053 42.2627C3.37386 42.2627 2.76053 42.0894 2.28053 41.7427C1.8272 41.396 1.53386 40.9294 1.40053 40.3427C1.29386 39.756 1.41386 39.1027 1.76053 38.3827L12.0005 15.9427C12.4272 15.036 12.9339 14.3827 13.5205 13.9827C14.1072 13.556 14.7872 13.3427 15.5605 13.3427C16.3339 13.3427 17.0139 13.556 17.6005 13.9827C18.1872 14.3827 18.6805 15.036 19.0805 15.9427L29.4005 38.3827C29.7472 39.1027 29.8672 39.7694 29.7605 40.3827C29.6805 40.9694 29.4139 41.436 28.9605 41.7827C28.5072 42.1027 27.9205 42.2627 27.2005 42.2627C26.2939 42.2627 25.5872 42.0494 25.0805 41.6227C24.6005 41.196 24.1739 40.5294 23.8005 39.6227L21.4005 34.0627L23.8805 35.7827H7.20053L9.68053 34.0627L7.32053 39.6227C6.92053 40.556 6.49386 41.236 6.04053 41.6627C5.61386 42.0627 4.97386 42.2627 4.12053 42.2627ZM15.4805 20.3027L10.3605 32.5027L9.28053 30.9427H21.8005L20.7205 32.5027L15.5605 20.3027H15.4805ZM34.3577 49.4627C33.3711 49.4627 32.6111 49.196 32.0777 48.6627C31.5711 48.156 31.3177 47.396 31.3177 46.3827V24.9827C31.3177 23.996 31.5711 23.2494 32.0777 22.7427C32.6111 22.2094 33.3444 21.9427 34.2777 21.9427C35.2644 21.9427 36.0111 22.2094 36.5177 22.7427C37.0244 23.2494 37.2777 23.996 37.2777 24.9827V27.7027L36.8377 26.1427C37.2377 24.8627 38.0377 23.836 39.2377 23.0627C40.4644 22.2627 41.8644 21.8627 43.4377 21.8627C45.1444 21.8627 46.6377 22.276 47.9177 23.1027C49.2244 23.9294 50.2377 25.1027 50.9577 26.6227C51.6777 28.1427 52.0377 29.956 52.0377 32.0627C52.0377 34.1694 51.6777 35.996 50.9577 37.5427C50.2377 39.0894 49.2377 40.276 47.9577 41.1027C46.6777 41.9294 45.1711 42.3427 43.4377 42.3427C41.8911 42.3427 40.5177 41.9694 39.3177 41.2227C38.1177 40.4494 37.3044 39.4494 36.8777 38.2227H37.3577V46.3827C37.3577 47.396 37.0911 48.156 36.5577 48.6627C36.0511 49.196 35.3177 49.4627 34.3577 49.4627ZM41.6377 37.8227C42.4911 37.8227 43.2377 37.6094 43.8777 37.1827C44.5444 36.756 45.0511 36.1294 45.3977 35.3027C45.7711 34.4494 45.9577 33.3694 45.9577 32.0627C45.9577 30.116 45.5577 28.6894 44.7577 27.7827C43.9577 26.8494 42.9177 26.3827 41.6377 26.3827C40.7844 26.3827 40.0244 26.5827 39.3577 26.9827C38.7177 27.3827 38.2111 28.0094 37.8377 28.8627C37.4644 29.6894 37.2777 30.756 37.2777 32.0627C37.2777 34.0094 37.6777 35.4627 38.4777 36.4227C39.2777 37.356 40.3311 37.8227 41.6377 37.8227ZM57.1718 49.4627C56.1851 49.4627 55.4251 49.196 54.8918 48.6627C54.3851 48.156 54.1318 47.396 54.1318 46.3827V24.9827C54.1318 23.996 54.3851 23.2494 54.8918 22.7427C55.4251 22.2094 56.1584 21.9427 57.0918 21.9427C58.0784 21.9427 58.8251 22.2094 59.3318 22.7427C59.8384 23.2494 60.0918 23.996 60.0918 24.9827V27.7027L59.6518 26.1427C60.0518 24.8627 60.8518 23.836 62.0518 23.0627C63.2784 22.2627 64.6784 21.8627 66.2518 21.8627C67.9584 21.8627 69.4518 22.276 70.7318 23.1027C72.0384 23.9294 73.0518 25.1027 73.7718 26.6227C74.4918 28.1427 74.8518 29.956 74.8518 32.0627C74.8518 34.1694 74.4918 35.996 73.7718 37.5427C73.0518 39.0894 72.0518 40.276 70.7718 41.1027C69.4918 41.9294 67.9851 42.3427 66.2518 42.3427C64.7051 42.3427 63.3318 41.9694 62.1318 41.2227C60.9318 40.4494 60.1184 39.4494 59.6918 38.2227H60.1718V46.3827C60.1718 47.396 59.9051 48.156 59.3718 48.6627C58.8651 49.196 58.1318 49.4627 57.1718 49.4627ZM64.4518 37.8227C65.3051 37.8227 66.0518 37.6094 66.6918 37.1827C67.3584 36.756 67.8651 36.1294 68.2118 35.3027C68.5851 34.4494 68.7718 33.3694 68.7718 32.0627C68.7718 30.116 68.3718 28.6894 67.5718 27.7827C66.7718 26.8494 65.7318 26.3827 64.4518 26.3827C63.5984 26.3827 62.8384 26.5827 62.1718 26.9827C61.5318 27.3827 61.0251 28.0094 60.6518 28.8627C60.2784 29.6894 60.0918 30.756 60.0918 32.0627C60.0918 34.0094 60.4918 35.4627 61.2918 36.4227C62.0918 37.356 63.1451 37.8227 64.4518 37.8227ZM84.0258 42.3427C81.6525 42.3427 79.8792 41.6894 78.7058 40.3827C77.5325 39.0494 76.9458 37.076 76.9458 34.4627V16.4227C76.9458 15.4094 77.1992 14.6494 77.7058 14.1427C78.2392 13.6094 78.9992 13.3427 79.9858 13.3427C80.9458 13.3427 81.6792 13.6094 82.1858 14.1427C82.7192 14.6494 82.9858 15.4094 82.9858 16.4227V34.2227C82.9858 35.316 83.2125 36.1294 83.6658 36.6627C84.1458 37.1694 84.7725 37.4227 85.5458 37.4227C85.7592 37.4227 85.9592 37.4094 86.1458 37.3827C86.3325 37.356 86.5325 37.3427 86.7458 37.3427C87.1725 37.2894 87.4658 37.4227 87.6258 37.7427C87.8125 38.036 87.9058 38.636 87.9058 39.5427C87.9058 40.3427 87.7458 40.956 87.4258 41.3827C87.1058 41.7827 86.6125 42.0494 85.9458 42.1827C85.6792 42.2094 85.3725 42.236 85.0258 42.2627C84.6792 42.316 84.3458 42.3427 84.0258 42.3427ZM91.7062 42.2227C90.7195 42.2227 89.9595 41.9427 89.4262 41.3827C88.9195 40.796 88.6662 39.9827 88.6662 38.9427V25.2627C88.6662 24.196 88.9195 23.3827 89.4262 22.8227C89.9595 22.236 90.7195 21.9427 91.7062 21.9427C92.6662 21.9427 93.3995 22.236 93.9062 22.8227C94.4395 23.3827 94.7062 24.196 94.7062 25.2627V38.9427C94.7062 39.9827 94.4528 40.796 93.9462 41.3827C93.4395 41.9427 92.6928 42.2227 91.7062 42.2227ZM91.7062 18.6627C90.5862 18.6627 89.7195 18.4094 89.1062 17.9027C88.5195 17.3694 88.2262 16.6227 88.2262 15.6627C88.2262 14.676 88.5195 13.9294 89.1062 13.4227C89.7195 12.8894 90.5862 12.6227 91.7062 12.6227C92.8262 12.6227 93.6795 12.8894 94.2662 13.4227C94.8528 13.9294 95.1462 14.676 95.1462 15.6627C95.1462 16.6227 94.8528 17.3694 94.2662 17.9027C93.6795 18.4094 92.8262 18.6627 91.7062 18.6627Z" fill="#78716C"/>
<path d="M110.234 42.2227C107.541 42.2227 105.234 41.6494 103.314 40.5027C101.394 39.3294 99.9139 37.6627 98.8739 35.5027C97.8606 33.3427 97.3539 30.7694 97.3539 27.7827C97.3539 25.5427 97.6339 23.5427 98.1939 21.7827C98.7806 19.996 99.6206 18.4894 100.714 17.2627C101.834 16.0094 103.194 15.0494 104.794 14.3827C106.421 13.716 108.234 13.3827 110.234 13.3827C111.994 13.3827 113.634 13.636 115.154 14.1427C116.674 14.6494 117.981 15.396 119.074 16.3827C119.341 16.6227 119.514 16.876 119.594 17.1427C119.674 17.4094 119.674 17.6627 119.594 17.9027C119.541 18.116 119.421 18.3027 119.234 18.4627C119.047 18.596 118.821 18.6627 118.554 18.6627C118.314 18.636 118.047 18.5027 117.754 18.2627C116.741 17.3827 115.607 16.7294 114.354 16.3027C113.127 15.876 111.767 15.6627 110.274 15.6627C108.061 15.6627 106.181 16.1427 104.634 17.1027C103.114 18.036 101.954 19.4094 101.154 21.2227C100.381 23.036 99.9939 25.2227 99.9939 27.7827C99.9939 30.3694 100.381 32.5694 101.154 34.3827C101.954 36.196 103.114 37.5827 104.634 38.5427C106.181 39.476 108.061 39.9427 110.274 39.9427C111.741 39.9427 113.101 39.7294 114.354 39.3027C115.607 38.8494 116.754 38.1827 117.794 37.3027C118.087 37.0627 118.354 36.9427 118.594 36.9427C118.861 36.9427 119.074 37.0227 119.234 37.1827C119.421 37.316 119.554 37.5027 119.634 37.7427C119.714 37.956 119.714 38.1827 119.634 38.4227C119.581 38.6627 119.434 38.8894 119.194 39.1027C118.047 40.1427 116.714 40.9294 115.194 41.4627C113.701 41.9694 112.047 42.2227 110.234 42.2227ZM127.241 42.1827C126.097 42.1827 125.071 41.961 124.161 41.5177C123.274 41.0744 122.562 40.4677 122.026 39.6977C121.512 38.9277 121.256 38.0644 121.256 37.1077C121.256 35.8477 121.571 34.856 122.201 34.1327C122.831 33.4094 123.892 32.9077 125.386 32.6277C126.879 32.3244 128.932 32.1727 131.546 32.1727H133.051V33.7477H131.581C129.481 33.7477 127.836 33.841 126.646 34.0277C125.479 34.191 124.662 34.506 124.196 34.9727C123.729 35.4394 123.496 36.0927 123.496 36.9327C123.496 37.9827 123.857 38.8344 124.581 39.4877C125.304 40.141 126.284 40.4677 127.521 40.4677C128.524 40.4677 129.399 40.2344 130.146 39.7677C130.916 39.2777 131.522 38.6127 131.966 37.7727C132.409 36.9327 132.631 35.976 132.631 34.9027V30.9127C132.631 29.3494 132.316 28.2177 131.686 27.5177C131.056 26.7944 130.052 26.4327 128.676 26.4327C127.789 26.4327 126.926 26.5494 126.086 26.7827C125.269 27.016 124.394 27.3894 123.461 27.9027C123.204 28.0427 122.971 28.0894 122.761 28.0427C122.574 27.996 122.422 27.9027 122.306 27.7627C122.212 27.6227 122.142 27.4594 122.096 27.2727C122.072 27.0627 122.107 26.8644 122.201 26.6777C122.294 26.491 122.457 26.3394 122.691 26.2227C123.671 25.686 124.662 25.2894 125.666 25.0327C126.692 24.7527 127.684 24.6127 128.641 24.6127C130.017 24.6127 131.149 24.846 132.036 25.3127C132.946 25.7794 133.611 26.4794 134.031 27.4127C134.474 28.346 134.696 29.5477 134.696 31.0177V41.0277C134.696 41.3777 134.614 41.646 134.451 41.8327C134.287 42.0194 134.042 42.1127 133.716 42.1127C133.389 42.1127 133.132 42.0194 132.946 41.8327C132.759 41.646 132.666 41.3777 132.666 41.0277V37.8077H133.016C132.806 38.7177 132.432 39.4994 131.896 40.1527C131.359 40.806 130.694 41.3077 129.901 41.6577C129.107 42.0077 128.221 42.1827 127.241 42.1827ZM139.262 42.1127C138.912 42.1127 138.644 42.0194 138.457 41.8327C138.27 41.646 138.177 41.3777 138.177 41.0277V25.8027C138.177 25.4294 138.27 25.1494 138.457 24.9627C138.644 24.776 138.912 24.6827 139.262 24.6827C139.589 24.6827 139.834 24.776 139.997 24.9627C140.184 25.1494 140.277 25.4294 140.277 25.8027V29.0927L139.892 28.8827C140.359 27.4827 141.152 26.421 142.272 25.6977C143.415 24.9744 144.722 24.6127 146.192 24.6127C147.545 24.6127 148.665 24.8577 149.552 25.3477C150.462 25.8144 151.139 26.5377 151.582 27.5177C152.025 28.4977 152.247 29.7227 152.247 31.1927V41.0277C152.247 41.3777 152.154 41.646 151.967 41.8327C151.78 42.0194 151.524 42.1127 151.197 42.1127C150.847 42.1127 150.579 42.0194 150.392 41.8327C150.205 41.646 150.112 41.3777 150.112 41.0277V31.3677C150.112 29.6644 149.774 28.4277 149.097 27.6577C148.42 26.8644 147.347 26.4677 145.877 26.4677C144.197 26.4677 142.844 26.9927 141.817 28.0427C140.814 29.0694 140.312 30.4577 140.312 32.2077V41.0277C140.312 41.751 139.962 42.1127 139.262 42.1127Z" fill="#78716C"/>
<circle cx="92.4805" cy="14.9027" r="5" fill="white"/>
<circle cx="91.7255" cy="15.3338" r="3.5" fill="#4181BB"/>
<circle cx="170.894" cy="38.8871" r="3.5" fill="#BA9245"/>
<circle cx="180.894" cy="38.8871" r="3.5" fill="#5DBA45"/>
<circle cx="160.894" cy="38.8871" r="3.5" fill="#BA4545"/>
</g>
<defs>
<clipPath id="clip0_204_34">
<rect width="184.519" height="55" fill="white" transform="translate(0.48053 0.902706)"/>
</clipPath>
</defs>
</svg>
