<svg width="137" height="30" viewBox="0 0 137 30" fill="none" xmlns="http://www.w3.org/2000/svg">
<path d="M0.76 23L8.32 0.479999H13.8L21.52 23H17.96L15.8 16.28H6.44L4.28 23H0.76ZM11.12 1.88L7.32 13.64H14.92L11.12 1.88ZM33.3084 23.4C32.2684 23.4 31.3884 23.24 30.6684 22.92C29.9751 22.5733 29.4018 22.1733 28.9484 21.72C28.5218 21.2667 28.2018 20.8533 27.9884 20.48C27.8018 20.08 27.6818 19.8267 27.6284 19.72H27.5484V30H24.1484V6.64H27.0284L27.5884 10.48H27.6684C27.6951 10.3733 27.8018 10.12 27.9884 9.72C28.1751 9.32 28.4818 8.88 28.9084 8.4C29.3351 7.92 29.8951 7.50667 30.5884 7.16C31.3084 6.81333 32.2018 6.64 33.2684 6.64C35.6684 6.64 37.4418 7.42667 38.5884 9C39.7351 10.5733 40.3084 12.6 40.3084 15.08C40.3084 17.56 39.7218 19.5733 38.5484 21.12C37.4018 22.64 35.6551 23.4 33.3084 23.4ZM32.4284 20.52C33.6018 20.52 34.5218 20.2667 35.1884 19.76C35.8818 19.2267 36.3618 18.5467 36.6284 17.72C36.9218 16.8667 37.0684 15.9733 37.0684 15.04C37.0684 14.1333 36.9084 13.2667 36.5884 12.44C36.2951 11.6133 35.7884 10.9467 35.0684 10.44C34.3751 9.90667 33.4418 9.64 32.2684 9.64C30.7218 9.64 29.5618 10.1467 28.7884 11.16C28.0151 12.1467 27.6284 13.44 27.6284 15.04C27.6284 16.6933 28.0284 18.0267 28.8284 19.04C29.6551 20.0267 30.8551 20.52 32.4284 20.52ZM52.6834 23.4C51.6434 23.4 50.7634 23.24 50.0434 22.92C49.3501 22.5733 48.7768 22.1733 48.3234 21.72C47.8968 21.2667 47.5768 20.8533 47.3634 20.48C47.1768 20.08 47.0568 19.8267 47.0034 19.72H46.9234V30H43.5234V6.64H46.4034L46.9634 10.48H47.0434C47.0701 10.3733 47.1768 10.12 47.3634 9.72C47.5501 9.32 47.8568 8.88 48.2834 8.4C48.7101 7.92 49.2701 7.50667 49.9634 7.16C50.6834 6.81333 51.5768 6.64 52.6434 6.64C55.0434 6.64 56.8168 7.42667 57.9634 9C59.1101 10.5733 59.6834 12.6 59.6834 15.08C59.6834 17.56 59.0968 19.5733 57.9234 21.12C56.7768 22.64 55.0301 23.4 52.6834 23.4ZM51.8034 20.52C52.9768 20.52 53.8968 20.2667 54.5634 19.76C55.2568 19.2267 55.7368 18.5467 56.0034 17.72C56.2968 16.8667 56.4434 15.9733 56.4434 15.04C56.4434 14.1333 56.2834 13.2667 55.9634 12.44C55.6701 11.6133 55.1634 10.9467 54.4434 10.44C53.7501 9.90667 52.8168 9.64 51.6434 9.64C50.0968 9.64 48.9368 10.1467 48.1634 11.16C47.3901 12.1467 47.0034 13.44 47.0034 15.04C47.0034 16.6933 47.4034 18.0267 48.2034 19.04C49.0301 20.0267 50.2301 20.52 51.8034 20.52ZM62.8984 23V0.479999H66.1784V23H62.8984ZM72.0441 4.84C71.3241 4.86667 70.8441 4.69333 70.6041 4.32C70.3641 3.94667 70.2441 3.48 70.2441 2.92C70.2441 2.44 70.3641 2.01333 70.6041 1.64C70.8441 1.26667 71.3241 1.08 72.0441 1.08C72.7374 1.08 73.2041 1.26667 73.4441 1.64C73.7107 2.01333 73.8441 2.44 73.8441 2.92C73.8441 3.48 73.7107 3.94667 73.4441 4.32C73.2041 4.66667 72.7374 4.84 72.0441 4.84ZM70.3641 23V6.64H73.6841V23H70.3641ZM87.9394 23.4C85.806 23.4 83.8727 22.9733 82.1394 22.12C80.406 21.24 79.0327 19.9467 78.0194 18.24C77.006 16.5333 76.5127 14.4133 76.5394 11.88C76.5394 9.37333 77.046 7.24 78.0594 5.48C79.0727 3.72 80.446 2.38667 82.1794 1.48C83.9127 0.546666 85.8727 0.0799994 88.0594 0.0799994C90.2194 0.0799994 92.0594 0.466666 93.5794 1.24C95.0994 2.01333 96.286 3.05333 97.1394 4.36C98.0194 5.66667 98.5927 7.10667 98.8594 8.68H93.8594C93.6994 7.56 93.2994 6.72 92.6594 6.16C92.0194 5.57333 91.2727 5.17333 90.4194 4.96C89.5927 4.74667 88.806 4.64 88.0594 4.64C85.846 4.64 84.166 5.24 83.0194 6.44C81.8727 7.64 81.2994 9.33333 81.2994 11.52C81.2994 13.8667 81.846 15.68 82.9394 16.96C84.0594 18.24 85.7527 18.88 88.0194 18.88C88.7927 18.88 89.606 18.76 90.4594 18.52C91.3127 18.28 92.0594 17.8533 92.6994 17.24C93.366 16.6 93.7794 15.72 93.9394 14.6H98.9794C98.686 16.2267 98.0994 17.7067 97.2194 19.04C96.3394 20.3467 95.126 21.4 93.5794 22.2C92.0327 23 90.1527 23.4 87.9394 23.4ZM107.118 23.4C104.851 23.4 103.265 22.64 102.358 21.12C101.451 19.5733 100.998 17.5333 100.998 15C100.998 12.44 101.451 10.3867 102.358 8.84C103.291 7.26667 104.878 6.48 107.118 6.48C108.131 6.48 108.971 6.62667 109.638 6.92C110.305 7.18667 110.838 7.52 111.238 7.92C111.638 8.32 111.918 8.69333 112.078 9.04C112.265 9.36 112.385 9.56 112.438 9.64H112.518V6.52H117.478V23H113.278L112.518 20.52H112.438C112.385 20.6533 112.185 20.96 111.838 21.44C111.518 21.8933 110.971 22.3333 110.198 22.76C109.451 23.1867 108.425 23.4 107.118 23.4ZM109.118 19.36C110.078 19.36 110.798 19.16 111.278 18.76C111.758 18.36 112.078 17.84 112.238 17.2C112.398 16.5333 112.478 15.8133 112.478 15.04C112.478 14.24 112.398 13.52 112.238 12.88C112.078 12.2133 111.758 11.6933 111.278 11.32C110.798 10.92 110.078 10.72 109.118 10.72C108.158 10.72 107.425 10.92 106.918 11.32C106.438 11.72 106.118 12.2533 105.958 12.92C105.798 13.56 105.718 14.2667 105.718 15.04C105.718 15.8133 105.798 16.5333 105.958 17.2C106.118 17.84 106.438 18.36 106.918 18.76C107.425 19.16 108.158 19.36 109.118 19.36ZM120.19 23V6.56H124.35L125.15 9.8H125.23C125.257 9.77333 125.35 9.58667 125.51 9.24C125.67 8.89333 125.937 8.52 126.31 8.12C126.71 7.69333 127.257 7.32 127.95 7C128.643 6.68 129.523 6.52 130.59 6.52C132.083 6.52 133.217 6.82667 133.99 7.44C134.79 8.05333 135.35 8.82667 135.67 9.76C136.017 10.6667 136.203 11.6 136.23 12.56C136.283 13.52 136.31 14.3467 136.31 15.04V23H131.63V15C131.63 14.28 131.563 13.6 131.43 12.96C131.297 12.32 131.003 11.8 130.55 11.4C130.097 10.9733 129.39 10.76 128.43 10.76C127.47 10.76 126.75 10.9733 126.27 11.4C125.817 11.8267 125.51 12.3733 125.35 13.04C125.217 13.7067 125.15 14.3867 125.15 15.08V23H120.19Z" fill="#317DCE"/>
</svg>
